<svg xmlns="http://www.w3.org/2000/svg" width="100" height="100" viewBox="0 0 100 100"><path d="M50 12c-21 0-38 17-38 38s17 38 38 38 38-17 38-38-17-38-38-38zm2 71.9v-2c0-1.1-.9-2-2-2s-2 .9-2 2v2c-17.2-1-30.9-14.8-31.9-31.9h2c1.1 0 2-.9 2-2s-.9-2-2-2h-2c1-17.2 14.8-30.9 31.9-31.9v2c0 1.1.9 2 2 2s2-.9 2-2v-2c17.2 1 30.9 14.8 31.9 31.9h-2c-1.1 0-2 .9-2 2s.9 2 2 2h2c-1 17.2-14.7 30.9-31.9 31.9zM62 62c-.8.8-2 .8-2.8 0L48.6 51.4c.1.1-.6-.4-.6-1.4V26c0-1.1.9-2 2-2s2 .9 2 2v23.2l10 10c.8.8.8 2 0 2.8z"/><path fill="#00F" d="M1504-1070V614H-280v-1684h1784m8-8H-288V622h1800v-1700z"/></svg>